# xmcd
#
# Track frame offsets:
#	150
#	13143
#	26855
#	36263
#	50077
#	63072
#	73778
#	85977
#	103258
#	114611
#	125997
#	135902
#	148378
#	161408
#
# Disc length: 2282 seconds
#
# Revision: 1
# Processed by: cddbd v1.5.2PL0 Copyright (c) Steve Scherf et al.
# Submitted via: audiograbber 1.83.01
#
DISCID=d408e80e
DTITLE=Billie Jo Spears - For The Good Times
DYEAR=1981
DGENRE=Country
TTITLE0=I Love You Because
TTITLE1=Games People Play
TTITLE2=Yours Love
TTITLE3=What A Love I Found In You
TTITLE4=Your Old Love Letters
TTITLE5=Break Away
TTITLE6=Help Me Make It Through The Ni
TTITLE7=For The Good Times
TTITLE8=True Love
TTITLE9=I'll Share My World With You
TTITLE10=Put A Little Love In Your Hear
TTITLE11=Marty Gray
TTITLE12=Today I Started Loving You Aga
TTITLE13=Snowbird
EXTD=Perfect music !!!
EXTT0=
EXTT1=
EXTT2=
EXTT3=
EXTT4=
EXTT5=
EXTT6=
EXTT7=
EXTT8=
EXTT9=
EXTT10=
EXTT11=
EXTT12=
EXTT13=
PLAYORDER=
